# xmcd
#
# Track frame offsets:
# 150
# 13060
# 24952
# 37627
# 50618
# 65208
# 81624
# 95969
# 114206
# 128647
# 144201
# 157449
# 167585
# 185073
# 195825
# 215746
# 229952
#
# Disc length: 3204 seconds
#
#
# Revision: 0
# Processed by: cddbd v1.5.2PL0 Copyright (c) Steve Scherf et al.
# Submitted via: Nero 7, 11, 10, 0 
#
DISCID=f00c8211
DTITLE=Travis Matte - Zydeco Train
DYEAR=2005
DGENRE=Blues
TTITLE0=Booty Call
TTITLE1=Jenny Jenny
TTITLE2=Give It To Me And I'll Give It To You
TTITLE3=La Bamba
TTITLE4=Summer Of 69'
TTITLE5=Bad Moon Rising
TTITLE6=Sugar Daddy
TTITLE7=Blue Monday
TTITLE8=Zydeco Party
TTITLE9=Your Daddy Don't Want Me Around
TTITLE10=Daddy's Little Baby
TTITLE11=Your Lovin' Man
TTITLE12=Shoulda Coulda
TTITLE13=The Twist
TTITLE14=Zydeco Train
TTITLE15=Vibrator
TTITLE16=Work That Body
EXTD=
EXTT0=Booty Call
EXTT1=Jenny Jenny
EXTT2=Give It To Me And I'll Give It To You
EXTT3=La Bamba
EXTT4=Summer Of 69'
EXTT5=Bad Moon Rising
EXTT6=Sugar Daddy
EXTT7=Blue Monday
EXTT8=Zydeco Party
EXTT9=Your Daddy Don't Want Me Around
EXTT10=Daddy's Little Baby
EXTT11=Your Lovin' Man
EXTT12=Shoulda Coulda
EXTT13=The Twist
EXTT14=Zydeco Train
EXTT15=Vibrator
EXTT16=Work That Body
PLAYORDER=
